<svg
      xmlns="http://www.w3.org/2000/svg"
      width="75mm"
      height="24mm"
      viewBox="0 0 75 24"
    >
      <path
        fill="#fdcba8"
        d="M13.086 21.529l-.233-.094-.487.019-.486.019-.868-.003-.868-.003-.468-.072-.467-.071-.517-.126-.518-.127-.412-.152-.412-.153-.455-.226-.454-.225-.35-.23-.35-.228-.317-.256-.318-.257-.386-.4-.386-.399-.263-.355-.263-.354-.233-.396-.233-.395-.164-.356-.164-.355-.151-.433-.15-.433-.103-.406-.102-.405-.064-.381-.064-.381-.044-.487-.045-.487v-.931l.043-.466.043-.465.067-.403.067-.402.122-.474.121-.475.218-.552.218-.551.253-.456.253-.455.194-.272.194-.272.313-.374L4.711 6l.388-.342.388-.342.467-.313.466-.312.529-.251.528-.25.397-.133.398-.133.322-.082.322-.081.414-.07.413-.07.063.024.063.024v.323l-.413.123-.413.123-.444.221-.445.222-.296.222-.296.221-.332.34-.331.34-.271.408-.271.407-.251.526-.25.527-.176.55-.176.55-.124.615-.124.614-.067.55-.066.55-.025.931-.024.932.05.656.049.656.085.588.085.588.164.64.164.64.133.359.133.36.18.38.182.382.181.296.181.297.231.287.231.287.283.275.283.275.307.214.308.213.39.185.392.184.38.111.382.11.423.066.423.065.834-.016.834-.015.026-.026.026-.026-.07-.242-.07-.241.029-.196.029-.196.098-.191.098-.192.12-.112.12-.112.183-.091.183-.092.204-.024.205-.024.248.077.248.078.216.215.216.215.051.157.052.157h.159l.245-.205.246-.204.194-.23.195-.229.174-.256.174-.257.189-.357.188-.357.19-.488.192-.487.179-.592.18-.592.04-.053.04-.052.038.023.038.023v3.546l.035.022.034.021 1.056-.293 1.055-.293.095-.042.095-.043.01-8.097.012-8.097h2.37l.01 7.757.012 7.758h.139l1.52-.423 1.52-.424h.038v-.493l.07-.207.07-.207.196-.195.196-.196.207-.07.207-.071h.393l.207.07.208.071.199.2.2.199.083.27.084.27.437-.015.438-.013.032-.05.031-.05v-.804l-.002-.804-.038-1.27-.039-1.27-.07-.53-.07-.529-.102-.396-.103-.397-.156-.32-.156-.32-.222-.24-.222-.24-.25-.132-.25-.134-.27-.071-.271-.072-.508-.001-.508-.001-.337.096-.337.096-.298.156-.298.156-.33.265-.328.265h-.111l-.092-.098-.092-.098v-.093l.223-.2.222-.2.314-.212.314-.212.396-.188.396-.187.496-.128.497-.127.619-.023.618-.024.418.052.419.053.351.102.352.102.241.122.242.122.262.193.262.193.228.277.228.277.174.35.174.352.104.358.103.358.067.403.067.402.043.508.044.508v3.408l.201-.003.202-.003.783-.071.783-.072-.009-.084-.008-.084-.05-.424-.05-.423.025-.677.026-.678.085-.42.085-.422.134-.404.134-.405.18-.38.181-.382.221-.338.22-.339.294-.347.294-.346.346-.292.347-.292.254-.17.254-.171.381-.192.381-.19.381-.136.381-.135.36-.08.36-.081.153-.001.154-.001.025.126.025.127-.023.061-.024.062-.279.09-.28.09-.171.088-.173.087-.233.159-.232.158-.28.291-.28.29-.148.233-.149.233-.15.3-.151.3-.148.423-.147.424-.092.42-.091.42-.062.444-.061.444-.026.783-.027.784.031.412.032.413.24-.004.239-.004.506-.048.506-.05.092-.267.092-.267.126-.156.125-.156.247-.127.247-.127.278.003.278.003.212.11.211.109.115.12.114.12.11.244.112.243h.142l2.032-.297 2.032-.298.102-.023.101-.022-.025-.728-.025-.728-.046-.36-.045-.36-.088-.444-.088-.444-.16-.488-.16-.488-.18-.36-.179-.358-.18-.254-.18-.254-.334-.318-.333-.318-.339-.174-.338-.174-.219-.07-.218-.072-.023-.094-.024-.095.024-.094.025-.094h.32l.488.124.488.123.416.178.416.177.19.11.191.109.254.168.254.168.328.275.329.276.278.32.279.322.225.339.226.338.195.39.195.39.145.436.145.435.086.427.087.426.028.431.028.43h.189l.85-.126.85-.127h.045v-.127h-1.049l-.026-.067-.025-.067v-.165l.108-.041.109-.042h.883V2.746l.042-.109.041-.109h2.271l.051.051.05.051v11.582h1.096l.027-.043.027-.043.013-.245.013-.246.095-.187.094-.188.111-.12.112-.12.205-.105.204-.104.204-.024.204-.025.24.076.24.076.21.19.212.189.178-.126.178-.126 4.466-3.104 4.466-3.104.088-.079.089-.079-.083-.242-.082-.243.022-.217.022-.216.093-.186.093-.185.112-.12.111-.12.192-.099.192-.098.196-.029.195-.03.234.069.235.068.182.139.182.139.128.25.127.248-.003.279-.003.278-.097.19-.096.19-.112.121-.112.12-.212.112-.211.11h-.593l-.148-.07-.148-.07-.111-.073-.111-.072-4.764 3.314-4.763 3.314.006.333.006.333h1.833l.087.075.088.074 1.932 3.377 1.932 3.377-.052.062-.052.063h-2.516l-.066-.074-.066-.074-1.762-3.088-1.762-3.088-.02-.02-.02-.02-.22.102-.218.102-.257-.002-.258-.002-.19-.087-.19-.087-.185-.154-.183-.155h-.784l-.26.027-.26.027v6.491l-.052.05-.05.051h-2.272l-.04-.108-.042-.109v-6.006l-.074.003-.074.003-.889.135-.888.135-.05.48-.05.48-.072.324-.072.325-.126.381-.127.381-.186.377-.187.376-.241.365-.242.364-.417.43-.417.43-.389.278-.389.278-.465.23-.466.23-.402.127-.402.127-.318.065-.317.065-.359.045-.359.044h-1.147l-.359-.044-.359-.045-.317-.065-.318-.065-.402-.127-.402-.126-.466-.23-.465-.231-.389-.278-.388-.278-.418-.43-.417-.43-.24-.362-.24-.362-.18-.358-.179-.358-.157-.465-.157-.466-.163.01-.163.008-.804.067-.804.067-.053.017-.053.018v4.191l-.082.044-.082.043h-2.059l-.095-.026-.095-.026v-3.92l-.022-.057-.022-.058-.327.03-.328.03-.135.003-.136.003-.08.182-.08.182-.144.163-.144.163-.212.1-.212.098h-.555L25.885 18l-.214-.107-.172-.188-.171-.189-.12.04-.12.039-1.249.343-1.249.344-.285.084-.286.083v2.703l-.082.044-.082.043h-2.059l-.095-.026-.095-.026V19.17l-.032-.019-.032-.018-1.107.307-1.108.308-.046.029-.046.028v1.382l-.095.026-.095.025-.635.002-.635.002-.762.04-.762.039-.235.127-.235.128-.231.023-.23.024-.233-.094zm27.41-.584l.339-.093.371-.192.372-.192.32-.298.318-.298.184-.258.183-.258.19-.381.19-.381.128-.402.128-.402.085-.403.086-.402.044-.38.045-.382.012-.275.011-.275-.105.009-.106.009-2.053.301-2.054.301-.046.05-.046.05-.052.186-.053.186-.219.218-.219.218-.246.077-.247.077-.214-.028-.214-.028-.196-.1-.195-.1-.097-.104-.098-.104-.119-.228-.118-.228-.102.008-.101.008-.614.05-.614.05-.033.02-.034.02.027.197.028.197.084.403.085.402.128.402.128.402.19.381.19.381.183.258.183.258.32.298.32.299.372.192.373.193.337.085.337.085.106.02.105.02.678-.013.677-.012zm24.128.505l-.426-.034-.365-.087-.365-.086-.265-.108-.265-.108-.268-.174-.268-.175-.298-.32-.298-.318-.207-.427-.208-.426-.107-.403-.107-.402-.074-.487-.074-.486V8.773h2.37l.025 4.042.024 4.043.053.53.052.529.105.527.105.527.125.312.125.313.153.23.152.23.176.152.175.153.258.123.258.122.292.062.293.062h.38l.382.001.343-.082.344-.083.233-.103.234-.103.23-.148.231-.147.22-.196.22-.196h.112l.07.078.07.077v.176l-.222.201-.222.202-.348.227-.348.228-.327.149-.326.149-.342.099-.341.099-.318.044-.317.044-.34.019-.338.019-.426-.034zm5.347-.24l-.074-.019.01-6.21.012-6.208h2.37l.011 6.18.011 6.18-.072.054-.072.053-1.06-.005-1.061-.005zm-15.26-9.015l-.054-.022v-.084l.299-.447.298-.446.12-.238.12-.238.09-.29.09-.29-.002-.218v-.218l-.079-.172-.078-.171-.176-.152-.177-.151-.252-.092-.253-.092v-.122h4.826v.12l-.349.132-.35.133-.35.187-.35.186-.348.227-.348.228-.437.349-.438.349-.473.458-.473.458-.274.322-.274.322-.128-.003-.128-.003-.053-.021zM17.117 9.037l-.043-.053-.157-.529-.158-.529-.18-.466-.18-.467-.18-.359-.18-.359-.149-.233-.147-.233-.23-.283-.23-.283-.292-.238-.29-.238-.322-.183-.322-.183-.454-.15-.453-.15-.466-.069-.466-.069-.211-.03-.212-.029-.013-.18-.013-.18h.33l.33.001 1.483.082 1.481.083.783.025.784.025.137.021.138.021v5.24l-.038.024-.037.023-.043-.052z"
      ></path>
      <path
        fill="#cdcdcd"
        d="M13.023 21.47l-.17-.066-.738.051-.739.051-.658-.026-.659-.026-.423-.065-.423-.065-.518-.126-.518-.126-.414-.153-.413-.153-.455-.226-.454-.225-.35-.229-.35-.229-.317-.256-.318-.257-.386-.4-.386-.399-.263-.355-.263-.354-.233-.396-.233-.395-.164-.356-.164-.355-.151-.433-.15-.433-.103-.406-.102-.405-.064-.381-.064-.381-.044-.487-.045-.487v-.931l.043-.466.043-.465.067-.402.067-.403.122-.474.121-.475.218-.552.218-.551.253-.456.253-.455.194-.272.194-.272.313-.374L4.711 6l.388-.342.388-.342.467-.312.466-.313.529-.25.528-.252.397-.132.398-.133.322-.082.322-.081.414-.07.413-.07.063.024.063.024v.323l-.413.123-.413.123-.444.222-.445.221-.296.222-.296.222-.332.34-.331.34-.271.407-.271.407-.251.527-.25.526-.176.55-.176.55-.124.615-.124.614-.067.55-.066.55-.025.931-.024.932.05.656.049.656.085.588.085.588.164.64.164.64.133.36.133.359.18.381.182.381.181.296.181.297.231.287.231.288.283.275.283.275.307.213.308.213.39.185.392.185.38.11.382.11.423.066.423.065.847-.024.847-.024.052-.008.053-.008v-.018l-.063-.152-.064-.152v-.437l.05-.166.05-.166.162-.185.163-.184.193-.094.193-.093h.538l.193.093.193.094.168.19.168.19.047.145.048.145h.163l.138-.115.137-.114.298-.304.298-.304.201-.3.202-.3.184-.35.185-.35.19-.488.192-.488.179-.592.18-.592.042-.055.042-.054.035.035.035.034.003 1.809.002 1.808h.103l1.121-.312 1.122-.312.01-8.101.011-8.102.02-.053.02-.053h2.326l.024.038.023.038v7.772l.001 7.773h.038l1.43-.398 1.431-.398.18-.048.18-.048v-.49l.07-.207.071-.207.2-.2.2-.2.224-.066.224-.067h.225l.2.06.199.06.15.115.151.115.12.19.122.191.027.182.027.182.049.018.048.017.424-.04.423-.04.021-.02.021-.02.014-.631.014-.63-.045-1.515-.045-1.514-.065-.487-.064-.487-.106-.416-.106-.417-.156-.32-.157-.322-.222-.24-.222-.24-.25-.133-.25-.133-.27-.072-.271-.072-.508-.001-.508-.001-.337.096-.337.096-.298.156-.298.156-.33.265-.328.265h-.11l-.092-.098-.093-.098v-.093l.223-.2.222-.2.314-.212.314-.212.396-.187.396-.188.497-.127.496-.128.619-.023.618-.024.419.053.418.052.351.102.352.102.241.122.242.122.262.193.262.193.228.277.228.277.174.35.174.352.104.358.104.359.066.402.067.402.043.508.044.508v3.5l.16-.024.158-.023.825-.07.826-.07.013-.01.012-.012-.055-.29-.055-.292.001-.867.001-.868.094-.466.093-.466.143-.423.143-.423.172-.36.172-.36.22-.339.22-.338.294-.347.294-.347.347-.292.346-.292.254-.17.254-.17.381-.192.381-.191.381-.136.381-.135.36-.08.36-.08.153-.002h.154l.025.126.025.127-.023.061-.024.061-.279.09-.28.09-.171.088-.173.088-.233.159-.232.158-.28.29-.28.291-.148.233-.149.233-.15.3-.151.299-.15.43-.15.43-.104.498-.105.498-.054.445-.054.444-.002.932-.001.93.018.226.018.225.194-.024.193-.024.55-.046.55-.047.053-.043.053-.044v-.09l.001-.09.1-.211.1-.212.122-.114.122-.114.19-.086.19-.086.229-.001.228-.001.174.051.174.052.219.217.218.217.053.177.053.176.046.037.046.037 2.138-.314 2.138-.315.06-.02.058-.021-.025-.75-.025-.75-.046-.36-.045-.36-.088-.445-.088-.444-.16-.488-.16-.488-.18-.36-.179-.358-.18-.254-.18-.254-.334-.318-.333-.318-.339-.174-.338-.174-.218-.07-.219-.072-.023-.094-.024-.095.025-.094.024-.094h.32l.488.124.488.123.416.177.416.178.19.11.191.109.254.168.254.168.329.275.328.275.278.322.279.32.225.34.226.338.195.39.195.39.145.436.145.435.088.435.088.436.027.465.026.465.131-.023.131-.022.72-.105.72-.105.133-.023.133-.022-.021-.084-.022-.083h-1.04l-.025-.067-.026-.067v-.165l.109-.041.108-.042h.884V2.746l.04-.109.042-.109h2.271l.051.051.051.051v11.574l.54.017.54.018.074-.036.074-.036v-.506l.088-.189.09-.188.169-.154.17-.153.154-.065.154-.064h.508l.156.065.156.065.188.173.187.173h.103l4.664-3.244 4.664-3.243.08-.076.08-.077-.074-.183-.074-.184-.001-.261v-.261l.093-.194.093-.193.185-.162.184-.163.166-.05.167-.05.228.002h.227l.19.087.191.086.122.114.122.114.1.212.1.211v.228l.001.228-.05.164-.048.164-.142.166-.142.166-.142.088-.142.088-.207.039-.206.039-.21-.04-.21-.04-.164-.107-.163-.108-.076.013-.076.013-4.745 3.302-4.746 3.302.001.36.001.36.943-.013.943-.012.09.076.09.075 1.932 3.378 1.932 3.377-.052.062-.052.063h-2.525l-.1-.138-.102-.138-1.75-3.074-1.752-3.074-.214.1-.214.1h-.508l-.212-.1-.211-.1-.1-.108-.1-.108-.715.002-.715.002v6.534l-.051.051-.05.05h-2.272l-.042-.11-.042-.11.011-3.022.012-3.023h-.195l-.85.127-.85.127h-.061l-.03.413-.028.413-.084.413-.084.412-.13.392-.131.392-.187.376-.186.377-.241.364-.242.364-.417.43-.418.43-.388.279-.389.277-.466.23-.465.231-.403.127-.402.127-.317.065-.318.065-.358.044-.36.045h-1.146l-.358-.045-.359-.044-.318-.065-.317-.065-.402-.127-.402-.127-.466-.23-.466-.23-.388-.278-.389-.278-.417-.43-.418-.43-.241-.365-.242-.364-.186-.377-.187-.376-.134-.403-.134-.402-.006-.074-.006-.074h-.065l-.065.001-.91.084-.91.083h-.052l-.051.001-.002 2.128-.002 2.127-.074.055-.074.055-1.107-.013-1.108-.012-.024-.024-.023-.024-.004-2.044-.003-2.045-.22.024-.22.024-.286.028-.286.027-.086.197-.087.196-.135.143-.136.142-.211.1-.212.1h-.466l-.213-.099-.213-.099-.18-.204-.179-.203-1.66.462-1.661.462-.011 1.385-.012 1.386-.085.045-.085.046-1.096-.013-1.096-.013-.023-.023-.024-.023-.004-1.046-.004-1.046h-.076l-1.07.298-1.07.298-.071.022-.07.02-.006.728-.005.726-.023.023-.023.023-.579.011-.578.01-.94.043-.941.042-.182.095-.181.095-.296.01-.297.01-.17-.065zm27.473-.525l.339-.093.371-.192.372-.192.32-.298.318-.298.184-.258.183-.258.19-.381.19-.381.128-.402.128-.402.085-.403.086-.402.045-.38.045-.382.018-.307.019-.307h-.071l-2.151.319-2.151.318-.047.052-.047.052-.049.174-.05.174-.169.193-.17.193-.188.09-.187.092h-.534l-.16-.067-.16-.067-.163-.148-.163-.147-.09-.21-.09-.208-.04-.024-.039-.025-.702.064-.702.065h-.079l.02.238.02.239.088.407.088.407.128.402.128.402.19.381.19.381.183.258.183.258.32.299.32.298.372.192.373.193.337.085.337.085.106.02.105.02.678-.012.677-.013.338-.093zm24.128.505l-.426-.034-.365-.087-.365-.086-.265-.108-.265-.108-.268-.174-.268-.175-.298-.32-.298-.318-.207-.427-.208-.426-.107-.403-.107-.402-.074-.487-.074-.486V8.773h2.37l.025 4.042.024 4.043.053.53.052.529.105.527.105.527.125.312.125.313.153.23.152.23.176.152.175.153.258.123.258.122.292.062.293.062h.38l.382.001.343-.082.344-.083.233-.103.234-.103.23-.148.231-.147.22-.196.22-.196h.112l.07.078.07.077v.176l-.222.201-.222.202-.348.227-.348.228-.327.149-.326.149-.342.099-.341.099-.318.044-.317.044-.34.019-.338.019-.426-.034zm5.347-.24l-.074-.019.01-6.21.012-6.208h2.37l.011 6.18.011 6.18-.072.054-.072.053-1.06-.005-1.061-.005zm-15.26-9.015l-.054-.022v-.084l.299-.447.298-.446.12-.238.12-.238.09-.29.09-.29-.002-.218v-.218l-.079-.172-.078-.171-.176-.152-.177-.151-.252-.092-.253-.092v-.122h4.826v.12l-.349.132-.35.133-.35.187-.35.186-.348.227-.348.228-.437.349-.438.349-.473.458-.473.458-.274.322-.274.322-.128-.003-.128-.003-.053-.021zM17.117 9.037l-.043-.053-.157-.529-.158-.529-.18-.466-.18-.467-.18-.359-.18-.359-.149-.233-.147-.233-.23-.283-.23-.283-.292-.238-.29-.238-.322-.183-.322-.183-.454-.15-.453-.15-.466-.069-.466-.069-.211-.03-.212-.029-.013-.18-.013-.18h.33l.33.001 1.483.082 1.481.083.783.025.784.025.137.021.138.021v5.24l-.038.024-.037.023-.043-.052z"
      ></path>
      <path
        fill="#fdb889"
        d="M12.983 21.453l-.21-.084-.489.04-.49.041h-.668l-.668.001-.411-.044-.411-.045-.53-.105-.528-.106-.566-.188-.565-.188-.43-.209-.43-.208-.38-.24-.381-.24-.389-.315-.388-.316-.331-.35-.331-.35-.244-.318-.243-.318-.268-.446-.269-.447-.202-.46-.202-.462-.125-.38-.125-.382-.102-.423-.1-.423-.076-.487-.075-.487v-2.117l.073-.467.074-.467.124-.507.124-.506.134-.38.135-.382.204-.433.203-.433.214-.354.214-.354.256-.335.256-.335.37-.375.37-.376.296-.243.296-.243.369-.24.369-.24.52-.252.52-.25.508-.167.508-.166.423-.087.424-.087.22-.028.221-.029.051.112.051.113-.048.048-.049.049-.35.1-.35.102-.392.185-.392.185-.307.204-.306.204-.404.402-.403.402-.268.4-.267.4-.202.405-.203.404-.158.423-.158.423-.164.657-.163.656-.086.592-.087.593-.05.875-.05.874.051.861.05.861.083.574.082.573.108.482.11.483.19.571.191.571.229.469.229.468.21.318.212.317.276.321.275.32.296.243.297.242.342.206.343.206.324.135.325.135.384.097.384.098.38.046.382.047.593-.003.592-.003.242-.03.242-.03.023-.024.024-.023-.065-.154-.064-.153v-.437l.05-.166.05-.167.162-.184.163-.184.193-.094.193-.093h.538l.193.093.193.094.168.19.168.19.047.145.048.145h.2l.246-.205.246-.205.152-.169.152-.168.169-.23.17-.23.196-.342.198-.343.189-.452.19-.452.24-.74.24-.74h.063l.025.095.026.096v3.365h.107l1.121-.312 1.122-.312.022-8.123.021-8.123.01-.011.01-.011 1.154.01 1.154.012.01 7.745.011 7.745.035.035.036.035 1.435-.4 1.436-.399.18-.048.18-.048v-.489l.07-.207.071-.208.2-.199.199-.2.225-.066.224-.067h.225l.2.06.199.06.15.115.151.115.12.19.122.19.027.183.027.182.049.018.048.017.402-.037.403-.037.053-.019.052-.018v-3.411l-.045-.612-.043-.614-.067-.424-.066-.423-.102-.35-.101-.35-.138-.284-.137-.283-.25-.267-.25-.268-.3-.143-.3-.143-.255-.051-.254-.052h-.889l-.296.074-.296.075-.262.117-.262.118-.204.138-.204.138-.218.183-.219.184h-.121l-.07-.078-.07-.077v-.091l.243-.209.244-.208.27-.182.27-.182.386-.182.386-.183.364-.105.364-.105.35-.051.35-.052.726.023.725.023.36.093.36.093.338.159.339.159.263.195.262.195.195.245.194.245.142.254.143.254.129.37.13.37.085.455.086.456.042.487.042.487.001 1.756.001 1.757.032.05.03.049.974-.086.974-.085.026-.027.027-.028-.06-.38-.06-.382.019-.825.02-.826.09-.423.091-.423.127-.381.126-.381.232-.466.232-.466.282-.394.282-.394.383-.38.384-.38.38-.271.38-.27.43-.214.43-.214.375-.125.376-.126.402-.081.402-.081.054.02.053.02.026.104.026.105-.058.054-.058.053-.331.118-.33.117-.313.204-.312.204-.26.267-.26.267-.183.275-.182.276-.147.296-.148.296-.11.307-.11.307-.09.35-.09.349-.08.465-.078.466-.05.783-.05.783.03.576.032.575.03.048.03.047.738-.066.74-.067.053-.043.052-.043v-.09l.001-.09.1-.212.1-.212.122-.114.122-.113.19-.087.191-.086h.228l.228-.002.174.052.174.051.219.218.219.217.052.176.053.176.046.037.046.037 2.16-.318 2.158-.317.06-.048.059-.047-.029-.695-.028-.695-.064-.49-.064-.491-.108-.484-.108-.483-.128-.364-.127-.363-.196-.38-.195-.38-.247-.327-.247-.328-.282-.234-.283-.235-.319-.164-.318-.164-.17-.053-.169-.053-.053-.042-.053-.042v-.191l.056-.046.055-.045.408.083.408.083.373.13.372.128.424.21.423.212.392.28.392.279.436.451.436.452.245.368.245.368.203.413.204.413.13.391.13.392.09.434.087.434.025.43.024.431.027.044.027.044.845-.125.846-.125.137-.023.138-.024v-.165h-.937l-.082-.044-.082-.044v-.2l.067-.025.067-.026h.969v-5.79l.001-5.788.034-.054.034-.053 1.14.01 1.14.012.01 5.832.012 5.83h1.106l.081-.043.082-.044v-.506l.09-.188.088-.19.17-.153.17-.153.154-.065.154-.064h.508l.156.065.156.066.187.172.188.173h.103l4.664-3.243 4.664-3.244.08-.076.08-.077-.074-.183-.075-.183v-.523l.093-.193.093-.194.185-.162.184-.162.166-.05.166-.05.228.001h.228l.19.087.191.086.122.114.122.114.1.212.1.211v.456l-.048.164-.05.164-.142.166-.142.166-.142.088-.142.088-.206.039-.207.039-.21-.04-.21-.04-.163-.107-.163-.108-.076.013-.076.013-4.746 3.302-4.745 3.302.001.37.001.37h1.936l.081.117.081.117 1.875 3.277 1.875 3.278.005.067.005.066-1.28.012-1.279.01-.103-.159-.103-.159-1.702-2.985-1.703-2.984-.04-.05-.04-.05-.219.103-.22.102h-.253l-.254-.001-.191-.086-.19-.086-.13-.126-.13-.126-.717.012-.717.012-.021 3.28-.021 3.281-1.14.012-1.14.01-.034-.053-.034-.053-.001-3.059v-3.058h-.215l-.877.13-.877.131-.026.042-.025.042-.027.367-.026.367-.067.355-.068.356-.142.434-.142.435-.172.36-.172.36-.259.387-.258.387-.362.38-.362.38-.333.251-.333.251-.296.176-.295.175-.386.167-.385.166-.451.124-.45.124-.45.065-.45.065h-1.376l-.45-.065-.45-.065-.45-.124-.451-.124-.386-.166-.386-.167-.295-.175-.296-.176-.332-.25-.333-.251-.362-.38-.362-.381-.259-.387-.258-.386-.174-.363-.173-.363-.149-.46-.15-.459h-.108l-.966.087-.966.087-.032.05-.032.051v2.08l-.001 2.081-.067.026-.067.026h-2.149l-.044-.082-.044-.082v-3.954l-.222.025-.222.025-.286.027-.286.028-.087.196-.087.196-.135.143-.135.143-.212.1-.212.1h-.465l-.214-.1-.213-.099-.18-.203-.178-.204-1.64.456-1.64.455-.052.044-.053.043v2.69l-.067.026-.067.026h-2.149l-.044-.082-.044-.082v-1.953h-.082l-1.07.298-1.07.298-.075.022-.074.023v1.312l-.043.082-.044.082h-.951l-.99.045-.988.044-.217.114-.217.113-.296.011-.296.012-.21-.084zm27.472-.464l.338-.089.339-.162.339-.162.292-.235.292-.235.25-.312.251-.311.25-.508.249-.508.125-.427.125-.427.09-.526.091-.525.025-.476.025-.477h-.09l-2.151.319-2.151.318-.047.052-.047.052-.049.174-.049.174-.17.193-.17.193-.187.09-.188.092h-.534l-.16-.067-.16-.067-.163-.148-.163-.147-.09-.21-.09-.208-.04-.024-.038-.025-.734.067-.733.067-.032.032-.032.032.089.522.089.523.125.427.125.427.249.508.249.508.25.312.25.311.288.231.288.23.28.14.28.14.226.074.226.075.303.057.303.058.614-.016.614-.016.339-.09zm24.024.417l-.36-.04-.318-.08-.317-.08-.242-.091-.241-.092-.31-.201-.308-.202-.267-.292-.268-.292-.208-.425-.208-.424-.105-.368-.104-.368-.064-.436-.065-.437-.043-.74-.042-.742V12.49l-.001-3.605.066-.067.067-.066h2.047l.095.026.095.026.002 3.011.002 3.011.038 1.27.039 1.27.066.498.067.497.061.265.062.264.08.233.08.233.138.273.137.272.241.241.241.241.213.108.212.108.272.075.272.075h1.143l.397-.137.396-.136.26-.152.26-.151.285-.233.286-.233.06.023.062.023.049.092.049.092-.226.212-.226.213-.297.2-.296.2-.266.134-.266.134-.369.123-.37.123-.33.068-.332.067-.515.018-.515.017-.36-.04zm5.462-.29l-.044-.082V8.884l.067-.066.066-.067 1.024.001h1.024l.095.026.095.026v12.342l-.067.026-.067.025h-2.149l-.044-.081zm-15.22-8.977l-.026-.042.318-.478.318-.477.13-.286.13-.285.062-.241.063-.242v-.389l-.106-.213-.107-.213-.18-.126-.179-.126-.148-.057-.148-.057-.057-.044-.057-.044.078-.03.078-.032 2.16-.002 2.158-.002.096.026.095.025v.06l-.392.156-.392.155-.437.253-.437.252-.336.242-.336.242-.412.347-.412.348-.466.481-.466.481-.16.18-.16.18h-.246l-.026-.042zm-37.88-4.02l-.279-.845-.234-.494-.235-.494-.243-.365-.242-.366-.32-.318-.318-.32-.307-.202-.307-.203-.342-.149-.342-.148-.393-.1-.393-.099-.44-.05-.44-.048-.092-.018-.092-.017-.025-.079-.025-.078.025-.066.026-.067.05-.02.052-.019 1.819.099 1.819.098.795.03.796.03.04.076.04.075v4.811l-.026.095-.026.095h-.061l-.28-.844z"
      ></path>
      <path
        fill="#fda567"
        d="M13.319 21.508l-.085-.017-.211-.063-.212-.062-.508.042-.508.042h-.669l-.668.001-.411-.044-.411-.045-.53-.105-.528-.106-.566-.188-.565-.188-.43-.209-.43-.208-.38-.24-.381-.24-.389-.315-.388-.316-.331-.35-.331-.35-.244-.318-.243-.318-.268-.447-.269-.446-.202-.46-.202-.462-.125-.38-.125-.382-.102-.423-.1-.423-.076-.487-.075-.487v-2.117l.073-.467.074-.467.124-.507.124-.506.134-.38.135-.382.204-.433.203-.433.214-.354.214-.354.256-.335.256-.335.37-.375.37-.376.296-.243.296-.243.369-.24.369-.24.52-.252.52-.25.508-.167.508-.166.423-.087.424-.087.22-.028.221-.029.051.112.051.113-.048.048-.049.049-.35.1-.35.102-.392.185-.392.185-.307.204-.306.204-.404.402-.403.402-.268.4-.267.4-.202.405-.203.404-.158.423-.158.423-.164.657-.163.656-.086.592-.087.593-.05.875-.05.874.051.861.05.861.083.574.082.573.108.482.11.483.19.571.191.571.229.469.229.468.21.318.212.317.276.321.275.32.296.243.297.242.342.206.343.206.324.135.325.135.387.098.387.099.441.051.442.051.723-.021.723-.022.092-.05.092-.048-.069-.134-.069-.133v-.513l.095-.2.094-.201.151-.133.151-.133.152-.065.15-.065h.257l.256-.002.199.097.199.096.149.174.15.175.047.16.048.16h.135l.129-.078.128-.078.262-.242.262-.243.228-.303.227-.304.197-.342.197-.342.189-.453.19-.452.24-.74.24-.74h.063l.025.096.026.095v3.408h.1l.85-.236.85-.236.286-.084.285-.083.001-8.052V2.805l.026-.096.026-.096 1.148.011 1.149.011.021 7.775.021 7.776.025.024.024.025 1.6-.445 1.6-.445.031-.02.032-.02.02-.333.02-.334.113-.195.114-.195.14-.106.14-.107.182-.064.182-.064h.317l.183.064.182.064.137.104.136.104.096.156.096.156.05.216.049.215.458-.009.458-.009.057-.022.056-.021v-3.453l-.044-.614-.043-.614-.067-.423-.066-.424-.102-.35-.101-.35-.138-.284-.137-.283-.25-.267-.25-.267-.3-.144-.3-.143-.255-.051-.254-.052h-.889l-.296.075-.296.074-.262.118-.262.117-.204.138-.204.138-.218.183-.219.184h-.121l-.07-.077-.07-.078v-.091l.243-.208.244-.21.27-.18.27-.182.386-.183.386-.183.364-.105.364-.105.35-.051.35-.051.726.023.725.023.36.093.36.092.338.16.339.158.263.195.262.196.195.244.194.245.142.254.143.254.129.37.13.37.085.455.086.456.042.487.042.487v1.76l.001 1.758.053.066.053.066.974-.09.973-.089v-.127l-.059-.44-.058-.44.024-.745.024-.745.09-.424.09-.423.127-.381.126-.381.232-.466.232-.465.282-.395.282-.394.383-.38.384-.38.38-.27.38-.271.43-.214.43-.213.375-.126.376-.125.402-.082.402-.081.054.02.053.02.026.105.026.105-.058.053-.058.053-.331.118-.33.118-.313.203-.312.204-.26.267-.26.267-.183.275-.182.276-.147.296-.148.297-.11.307-.11.307-.09.349-.09.349-.08.466-.078.465-.05.783-.05.784.031.58.032.58.049.06.048.063.678-.06.677-.06.095-.022.094-.02.025-.117.025-.115.064-.182.065-.182.107-.127.107-.127.216-.11.215-.109h.511l.202.096.202.095.15.174.15.175.05.184.049.183.064.033.064.032 2.173-.322 2.173-.322.045-.08.045-.082-.029-.681-.029-.68-.063-.487-.064-.487-.108-.484-.108-.483-.127-.363-.128-.364-.195-.38-.196-.38-.246-.327-.247-.328-.283-.234-.282-.235-.319-.164-.319-.164-.169-.053-.17-.053-.052-.042-.053-.042v-.191l.055-.046.055-.045.409.083.408.083.372.13.373.128.423.211.424.211.391.28.392.28.436.45.436.452.245.368.245.368.204.413.204.413.13.391.13.392.085.418.085.418.036.492.036.492.017.017.018.017.938-.139.937-.138.047-.03.046-.028v-.164h-.936l-.082-.044-.082-.044v-.2l.067-.025.067-.026h.967V2.677l.035-.054.034-.053 1.14.01 1.14.012.01 5.832.011 5.831h.603l.604-.001.046-.031.047-.031.002-.264.002-.263.092-.19.092-.19.153-.134.152-.134.152-.065.15-.065h.509l.156.067.156.067.187.173.188.172h.107l4.725-3.286 4.725-3.285.04-.038.04-.037-.08-.222-.081-.223.003-.233.003-.232.064-.152.064-.15.133-.152.133-.151.2-.095.2-.094h.512l.21.107.21.107.09.1.091.099.095.188.095.189-.001.256-.001.256-.066.153-.066.154-.11.13-.108.13-.14.085-.138.086-.212.046-.211.045-.209-.046-.209-.047-.158-.103-.157-.104h-.133l-4.778 3.325-4.779 3.326.005.379.005.378h1.967l.081.117.081.116 1.875 3.278 1.875 3.278.005.066.005.067-1.277.011-1.277.011-.081-.117-.081-.117-1.748-3.062-1.748-3.061-.054-.021-.055-.021-.182.093-.182.093h-.515l-.189-.095-.189-.095-.109-.102-.11-.102-.737.012-.737.011-.021 3.28-.021 3.282-1.14.011-1.14.011-.035-.053-.034-.054v-6.16h-.19l-.89.133-.89.132-.016.015-.016.014-.037.414-.037.415-.065.353-.065.353-.143.437-.144.437-.171.36-.172.36-.259.387-.259.386-.362.38-.362.381-.332.25-.333.251-.296.176-.295.176-.386.166-.386.166-.45.124-.451.124-.45.065-.45.065h-1.375l-.45-.065-.45-.065-.45-.124-.451-.124-.386-.166-.386-.166-.295-.176-.296-.176-.333-.25-.332-.251-.362-.38-.362-.38-.259-.387-.259-.387-.172-.36-.171-.36-.148-.452-.148-.451-.03-.03-.03-.031-.994.087-.994.087-.021.02-.021.022-.012 2.122-.012 2.122-.052.033-.051.033h-1.088l-1.087.001-.035-.053-.034-.053-.021-2.01-.021-2.011-.28.014-.28.015-.227.027-.228.028-.1.212-.1.212-.112.122-.113.121-.211.1-.212.1h-.466l-.214-.1-.214-.099-.173-.203-.174-.203-1.644.455-1.645.454-.053.069-.053.068v2.684l-.066.025-.067.026h-2.15l-.043-.082-.044-.082v-1.995h-.068l-1.077.298-1.078.298-.074.023-.074.022v1.354l-.044.082-.043.082h-.95l-1.007.045-1.007.046-.22.096-.221.097-.17.022-.169.021-.085-.017zm27.136-.519l.338-.089.339-.162.339-.162.292-.235.292-.235.25-.312.251-.311.25-.508.249-.508.125-.427.125-.427.09-.526.092-.525.025-.497.024-.498h-.057l-2.168.319-2.169.318-.049.017-.049.018-.066.226-.065.226-.15.175-.15.175-.2.097-.198.096-.256-.001-.256-.001-.151-.065-.152-.065-.15-.132-.15-.131-.1-.232-.101-.232-.053-.021-.052-.021-.731.065-.73.066-.036.034-.035.033.091.54.092.54.125.428.126.429.249.508.249.508.25.311.25.312.288.23.288.231.28.14.28.14.226.074.226.074.303.058.303.057.614-.016.614-.016zm24.024.417l-.36-.04-.318-.08-.317-.08-.242-.091-.241-.092-.31-.201-.308-.202-.267-.292-.268-.292-.208-.425-.208-.424-.105-.368-.104-.368-.064-.436-.065-.437-.043-.74-.042-.742V12.49l-.001-3.605.066-.067.067-.066h2.047l.095.026.095.026.002 3.011.002 3.011.038 1.27.039 1.27.066.498.067.497.061.265.062.264.08.233.08.233.138.273.137.272.241.241.241.241.213.108.212.108.272.075.272.075h1.143l.397-.137.396-.136.26-.152.26-.151.285-.233.286-.233.06.023.062.023.049.092.049.092-.226.212-.226.213-.297.2-.296.2-.266.134-.266.134-.369.123-.37.123-.33.068-.332.067-.515.018-.515.017-.36-.04zm5.462-.29l-.044-.082V8.885l.067-.067.066-.067 1.024.001h1.024l.095.026.095.026v12.342l-.067.026-.067.025h-2.149l-.044-.081zm-15.22-8.977l-.026-.042.318-.478.318-.477.13-.286.13-.285.062-.241.063-.242v-.389l-.106-.213-.107-.213-.18-.126-.179-.126-.148-.057-.148-.057-.057-.044-.057-.044.078-.03.078-.032 2.16-.002 2.158-.002.096.026.095.025v.06l-.392.156-.392.155-.437.253-.437.252-.336.242-.336.242-.412.347-.412.348-.466.481-.466.481-.16.18-.16.18h-.246l-.026-.042zm-37.88-4.02l-.279-.845-.234-.494-.235-.494-.243-.365-.242-.366-.32-.318-.318-.32-.307-.202-.307-.203-.342-.149-.342-.148-.393-.1-.393-.099-.44-.05-.44-.048-.092-.018-.092-.017-.025-.079-.025-.078.025-.066.026-.067.05-.02.052-.019 1.819.099 1.819.098.795.03.796.03.04.076.04.075v4.811l-.026.095-.026.095h-.061l-.28-.844z"
      ></path>
      <path
        fill="#a4a4a4"
        d="M9.975 21.402l-.34-.038-.528-.106-.53-.107-.565-.188-.565-.189-.43-.208-.43-.208-.38-.24-.381-.24-.389-.315-.388-.316-.331-.35-.331-.35-.244-.318-.243-.318-.268-.447-.269-.446-.202-.46-.202-.462-.125-.38-.125-.382-.102-.423-.1-.423-.076-.487-.075-.487v-2.117l.073-.467.074-.467.124-.507.124-.506.134-.381.135-.381.204-.433.203-.433.214-.354.214-.354.256-.335.256-.335.37-.375.37-.376.296-.243.296-.243.369-.24.369-.24.52-.252.52-.25.508-.167.508-.166.423-.087.424-.087.22-.028.221-.029.051.112.051.112-.048.05-.049.048-.35.1-.35.101-.392.186-.392.185-.307.204-.306.204-.404.402-.403.402-.268.4-.267.4-.202.405-.203.404-.158.423-.158.423-.164.656-.163.657-.086.592-.087.593-.05.875-.05.874.051.861.05.861.083.573.082.574.108.482.11.483.19.57.191.572.229.469.229.468.21.318.212.317.276.32.275.322.296.242.297.242.342.206.343.206.324.135.325.135.387.098.387.098.44.052.44.05.7-.023.7-.023.444-.087.445-.088.339-.111.338-.112.286-.143.286-.144.23-.147.229-.147.256-.237.256-.237.228-.303.227-.304.197-.342.197-.342.189-.453.19-.452.24-.74.24-.74h.063l.025.095.026.096v4.915l-.052.067-.053.066-1.058.027-1.059.027-.995.062-.994.063-.657.043-.656.043-.698-.006-.699-.006-.338-.039zm28.215-.02l-.402-.06-.451-.124-.45-.124-.387-.167-.385-.166-.296-.176-.295-.175-.333-.25-.333-.252-.362-.38-.362-.38-.259-.387-.258-.387-.173-.362-.173-.363-.16-.494-.162-.495-.073-.518-.074-.517.024-.77.023-.77.09-.424.091-.423.127-.381.126-.381.232-.466.232-.466.282-.394.282-.394.383-.38.384-.38.38-.271.38-.27.43-.214.43-.214.375-.125.376-.126.402-.081.402-.081.054.02.053.02.026.105.026.104-.058.054-.058.053-.331.118-.33.117-.313.204-.312.204-.26.267-.26.267-.183.275-.182.276-.148.296-.147.296-.11.307-.11.307-.09.35-.09.349-.08.465-.078.466-.052.797-.052.796.052.742.052.742.087.51.086.512.126.427.125.427.249.508.249.508.25.311.25.312.293.235.293.235.338.162.339.162.339.093.338.092h1.481l.34-.092.338-.093.339-.162.339-.162.292-.235.293-.235.25-.312.25-.311.25-.508.249-.508.125-.428.126-.429.091-.544.092-.544.032-.488.032-.488-.011-.783-.012-.783-.068-.508-.068-.508-.108-.484-.108-.483-.128-.364-.127-.363-.196-.38-.195-.38-.247-.327-.247-.328-.282-.234-.283-.235-.319-.164-.318-.164-.17-.053-.169-.053-.053-.042-.053-.042v-.191l.055-.046.056-.045.408.083.408.083.373.13.372.128.424.211.423.21.392.28.392.28.436.451.436.452.245.368.245.368.203.413.204.413.13.391.13.392.087.422.086.422.034.477.035.478-.015.317-.015.318-.064.454-.064.454-.123.415-.124.415-.15.35-.149.35-.171.294-.172.294-.251.333-.25.332-.381.362-.38.362-.392.262-.39.261-.245.124-.245.123-.312.124-.312.124-.399.107-.398.108-.45.065-.45.065-.736-.004-.735-.004-.402-.06zm26.289.024l-.36-.04-.318-.08-.317-.08-.242-.091-.241-.092-.31-.201-.308-.202-.267-.292-.268-.292-.208-.425-.208-.424-.105-.368-.104-.368-.064-.436-.065-.437-.043-.74-.042-.742V12.49l-.001-3.605.066-.067.067-.066h2.047l.095.026.095.026.002 3.011.002 3.011.038 1.27.039 1.27.066.498.067.497.061.265.062.264.08.233.08.233.138.273.137.272.241.241.241.241.213.108.212.108.272.075.272.075h1.143l.397-.137.396-.136.26-.152.26-.151.285-.233.286-.233.06.023.062.023.049.092.049.092-.226.212-.226.213-.297.2-.296.2-.266.134-.266.134-.369.123-.37.123-.33.068-.332.067-.515.018-.515.017-.36-.04zm-44.83-.29l-.044-.082.001-9.115V2.804l.026-.096.026-.095h2.271l.023.038.023.037.002 9.22.001 9.22-.054.034-.054.034h-1.088l-1.089.001-.044-.081zm8.89 0l-.044-.082v-7.562l-.044-.614-.043-.614-.067-.423-.066-.424-.102-.35-.101-.35-.138-.284-.137-.283-.25-.267-.25-.268-.3-.143-.3-.143-.255-.051-.254-.052h-.889l-.296.075-.296.074-.262.118-.262.117-.204.138-.204.138-.218.183-.219.184h-.121l-.07-.077-.07-.078v-.091l.243-.208.244-.21.27-.18.27-.182.386-.183.386-.183.364-.105.364-.105.35-.051.35-.051.726.023.725.023.36.092.36.093.338.159.339.159.262.195.263.196.195.244.194.245.142.254.143.254.128.368.13.369.083.436.084.436.046.529.046.529v7.995l-.054.034-.054.034h-1.088l-1.089.002-.044-.082zm19.456.015l-.026-.067v-6.47h-.937l-.082-.044-.082-.044v-.2l.067-.025.067-.026h.968v-5.79l.001-5.788.034-.054.034-.053 1.14.01 1.14.012.01 5.832.012 5.83h5.37l.081.117.081.117 1.875 3.278 1.875 3.277.005.067.005.066-1.28.012-1.279.01-.103-.159-.103-.159-1.703-2.984-1.704-2.985-.1-.16-.1-.159-1.45.012-1.449.01-.02 3.281-.022 3.281-1.149.012-1.149.01-.026-.067zm21.946-.015l-.044-.082V8.885l.067-.067.066-.066h2.048l.095.026.095.026v12.342l-.067.026-.067.025h-2.149l-.044-.081zm-15.22-8.977l-.026-.042.318-.478.318-.477.13-.286.13-.285.062-.241.063-.242v-.389l-.106-.213-.107-.213-.18-.126-.179-.126-.148-.057-.148-.057-.057-.044-.057-.044.078-.03.078-.032 2.16-.002 2.158-.002.096.026.095.025v.06l-.392.156-.392.155-.437.253-.437.252-.336.242-.336.242-.412.347-.412.348-.466.481-.466.481-.16.18-.16.18h-.246l-.026-.042zm-37.88-4.02l-.279-.845-.234-.494-.235-.494-.243-.365-.242-.366-.32-.318-.318-.32-.307-.202-.307-.203-.342-.149-.342-.148-.393-.1-.393-.099-.44-.05-.44-.048-.092-.018-.092-.017-.025-.079-.025-.078.025-.066.026-.067.05-.02.052-.019 1.819.099 1.819.098.795.03.796.03.04.076.04.075v4.811l-.026.095-.026.095h-.061l-.28-.844z"
      ></path>
      <path
        fill="#a26d48"
        d="M10.377 21.409l-.445-.037-.423-.07-.423-.07-.476-.122-.476-.123-.413-.154-.413-.154-.403-.202-.402-.202-.402-.264-.402-.264-.318-.265-.317-.264-.318-.333-.318-.333-.195-.254-.195-.254-.242-.372-.242-.371-.267-.56-.268-.56-.172-.533-.172-.533-.104-.525-.105-.526-.05-.476-.051-.476.022-.942.022-.942.09-.508.09-.508.13-.486.129-.486.145-.376.145-.376.212-.424.212-.423.238-.366.239-.365.243-.298.244-.299.354-.35.353-.352.407-.308.408-.308.418-.237.418-.236.458-.192.459-.192.43-.125.431-.125.44-.09.442-.089.13.013.131.013v.198l-.505.166-.504.166-.321.173-.32.173-.26.185-.26.185-.24.219-.239.218-.277.344-.276.344-.239.402-.238.402-.177.402-.176.402-.15.466-.15.466-.11.498-.112.499-.084.6-.085.6-.038.807-.038.806.038.804.038.804.067.508.066.508.085.424.084.423.129.46.129.46.145.379.144.379.238.465.238.465.234.326.233.326.23.261.23.261.33.26.33.261.25.151.249.15.264.12.264.12.335.105.335.106.396.074.396.074.867.002.868.002.254-.07.254-.072.385-.088.384-.088.262-.102.262-.103.454-.242.455-.242.34-.343.34-.343.237-.36.238-.36.179-.359.18-.359.15-.382.149-.381.18-.57.179-.57.046-.016.046-.015.005 1.75.004 1.75-.008.761-.007.762-.029.027-.028.027-1.418.05-1.418.048-.15.04-.151.04-1.099.042-1.098.042-.487.02-.487.018-.444-.037zm28.253 0l-.385-.038-.426-.087-.425-.087-.438-.151-.438-.152-.45-.233-.448-.232-.358-.269-.358-.268-.379-.397-.378-.397-.212-.315-.211-.316-.217-.429-.216-.43-.14-.438-.138-.439-.031-.042-.03-.043-.025-.275-.024-.275-.05-.498-.051-.499.049-.56.048-.56.101-.444.101-.445.09-.275.09-.275.273-.55.273-.55.277-.369.278-.368.327-.327.327-.328.33-.245.331-.246.361-.197.362-.197.347-.136.348-.136.42-.11.422-.111.19-.012.19-.012v.25l-.295.111-.297.11-.217.112-.217.111-.266.214-.266.213-.19.222-.191.223-.187.287-.187.288-.14.309-.141.309-.127.398-.127.399-.09.415-.09.416-.066.558-.066.558v1.99l.046.119.046.119v.471l.104.515.105.516.153.44.152.439.13.256.128.257.19.284.19.284.26.263.26.263.309.202.308.202.242.091.242.091.317.087.318.087h1.397l.317-.087.318-.087.241-.09.242-.092.309-.202.308-.202.26-.263.26-.263.19-.284.19-.284.129-.257.129-.256.153-.44.153-.439.102-.51.103-.51.05-.479.049-.477-.021-.216-.02-.216.034-.153.035-.153-.04-.741-.038-.74-.069-.466-.07-.466-.117-.466-.117-.465-.177-.452-.176-.451-.228-.362-.227-.362-.174-.207-.175-.207-.263-.212-.263-.211-.204-.118-.204-.118-.304-.112-.304-.112-.014-.099-.015-.099.042-.041.04-.041.355.071.354.072.444.147.445.148.448.232.449.232.356.268.355.267.41.424.411.423.261.396.26.396.163.322.161.32.148.424.147.424.088.403.087.402.044.483.045.482.006.127.006.127-.051.461-.051.462-.064.335-.063.335-.127.389-.126.389-.207.423-.208.423-.225.338-.225.337-.378.396-.379.397-.362.272-.362.272-.49.25-.49.248-.476.154-.477.154-.478.082-.478.081-.609.02-.609.02-.385-.037zm25.743-.048l-.296-.037-.34-.084-.338-.084-.382-.188-.383-.189-.292-.267-.292-.267-.201-.309-.202-.308-.13-.34-.131-.338-.082-.347-.082-.348-.072-.487-.072-.486-.017-4.184-.017-4.183.05-.06.05-.061h2.133l.051.05.051.051v7.582l.044.614.042.614.087.522.087.522.106.324.105.324.135.254.135.254.254.255.254.256.233.112.233.111.275.073.275.073h.487l.487.001.296-.07.296-.072.381-.186.381-.186.318-.256.317-.256.052-.001h.051l.047.088.048.088-.099.107-.099.106-.339.256-.338.257-.466.224-.466.223-.317.089-.318.088-.402.062-.402.062-.444-.005-.445-.005-.296-.038zm-44.703-.246l-.024-.04.001-9.174.001-9.174.048-.057.047-.057h2.1l.066.067.067.066.002 7.755.002 7.754-.004 1.388-.004 1.389-.024.061-.024.062h-2.229l-.025-.04zm8.891.001l-.024-.039v-7.31l-.043-.695-.042-.695-.064-.447-.064-.448-.106-.381-.105-.381-.155-.318-.154-.317-.279-.279-.278-.278-.248-.116-.247-.117-.303-.064-.303-.064-.53.02-.528.022-.233.072-.233.071-.296.148-.297.147-.312.24-.313.24-.058.042-.058.042-.074-.046-.074-.047-.013-.066-.013-.067.288-.239.289-.24.338-.208.337-.21.425-.165.424-.166.444-.093.445-.094.656-.001.656-.001.39.07.388.07.342.125.341.125.264.16.265.16.275.278.275.278.16.274.159.274.13.336.13.336.08.37.081.37.042.294.042.294.043.757.044.756v7.126l-.026.067-.026.068h-2.23l-.024-.04zm19.47-.014l-.018-.053-.012-3.238-.011-3.239-.53-.021-.528-.021v-.212l.529-.021.529-.021.021-5.821.021-5.821 1.133-.011 1.132-.012v11.552l.026.067.026.067 1.36-.023 1.361-.023 1.334.033 1.333.034 1.937 3.381 1.937 3.382v.075l-1.28-.011-1.279-.011-1.78-3.113-1.779-3.112-.117-.153-.117-.152-1.39-.031-1.39-.031-.091.048-.09.048v6.517h-2.247zm21.937.025l-.028-.029V8.895l.05-.05.051-.051h2.125l.051.05.051.051v12.126l-.026.067-.025.067h-2.22zm-15.152-8.976l-.074-.02v-.049l.272-.406.273-.406.17-.36.172-.36.064-.252.065-.252v-.22l-.063-.213-.063-.213-.157-.16-.156-.162-.225-.103-.225-.103v-.079h4.403v.09l-.135.047-.134.047-.448.22-.447.22-.508.342-.508.342-.424.358-.423.358-.466.48-.466.481-.182.201-.182.201-.03-.005-.029-.005zm-37.81-3.64l-.113-.373-.193-.53-.194-.529-.184-.385-.184-.386-.265-.398-.266-.397-.298-.3-.297-.3-.266-.179-.267-.18-.347-.164-.347-.165-.368-.106-.368-.105-.442-.065-.442-.066h-.247l-.051-.05-.051-.051v-.148l.04-.025.04-.025 2.088.108 2.087.107.55.032.55.031.011 2.474.011 2.474-.037.037-.037.037z"
      ></path>
      <path
        fill="#636262"
        d="M10.377 21.406l-.445-.034-.423-.07-.423-.07-.476-.122-.476-.122-.413-.155-.413-.154-.403-.202-.402-.202-.402-.264-.402-.264-.318-.265-.317-.264-.318-.333-.318-.333-.195-.254-.195-.254-.242-.372-.242-.371-.267-.56-.268-.56-.172-.533-.172-.533-.104-.525-.105-.526-.05-.476-.051-.476.022-.942.022-.942.09-.508.09-.508.13-.486.129-.486.145-.376.145-.376.212-.423.212-.424.238-.366.239-.365.243-.298.244-.299.354-.35.353-.352.407-.308.408-.308.418-.237.418-.236.458-.192.459-.192.43-.125.431-.125.44-.09.442-.089.13.013.131.013v.198l-.505.166-.504.166-.321.173-.32.173-.26.185-.26.185-.24.219-.239.219-.277.343-.276.344-.239.402-.238.402-.177.402-.176.402-.15.466-.15.466-.11.498-.112.499-.084.6-.085.6-.038.807-.038.806.038.804.038.804.067.508.066.508.085.424.084.423.129.46.129.46.145.379.144.379.238.465.238.465.234.326.233.326.23.261.23.261.33.26.33.261.25.151.249.15.264.12.264.12.335.105.335.106.396.074.396.073.825.001.826.001.38-.053.382-.054.402-.105.402-.105.423-.206.424-.207.319-.252.32-.252.223-.25.224-.249.225-.339.225-.338.179-.36.18-.359.15-.381.149-.382.18-.57.179-.57.046-.016.046-.015v5.047l-.053.018-.052.017-1.482.047-1.482.048-.571.04-.572.042-.868.061-.867.062-.212-.005-.212-.005-.444-.034zm28.253.003l-.385-.038-.426-.086-.425-.087-.438-.152-.438-.152-.45-.232-.448-.232-.358-.27-.358-.268-.379-.396-.378-.397-.225-.337-.225-.337-.207-.423-.207-.424-.11-.33-.11-.33-.08-.39-.083-.39-.049-.52-.049-.52.049-.56.048-.558.101-.445.101-.444.09-.275.09-.275.273-.55.273-.551.277-.368.278-.368.327-.328.327-.327.33-.246.331-.245.361-.197.362-.197.347-.137.348-.136.42-.11.422-.111.19-.012.19-.012v.251l-.295.11-.297.111-.217.111-.217.112-.266.213-.266.213-.19.223-.191.222-.187.288-.187.288-.14.308-.141.31-.127.398-.127.398-.09.416-.09.416-.066.557-.066.558v1.863l.068.546.069.547.087.402.087.402.148.425.147.424.13.257.128.257.19.283.19.284.26.264.26.263.309.202.308.202.242.09.242.092.317.086.318.087h1.397l.317-.087.318-.086.241-.091.242-.091.308-.202.31-.202.26-.263.26-.264.19-.284.189-.283.129-.257.129-.257.153-.44.152-.438.103-.51.102-.511.045-.424.044-.423.017-.445.017-.444-.036-.72-.037-.72-.069-.465-.07-.466-.117-.465-.117-.466-.177-.452-.176-.451-.228-.362-.227-.362-.174-.207-.175-.206-.263-.212-.263-.212-.204-.118-.204-.118-.304-.112-.304-.112-.014-.099-.015-.098.042-.042.04-.04.355.07.354.072.444.148.445.147.448.233.449.232.356.267.355.267.41.424.411.423.261.397.26.396.163.32.161.322.148.424.147.423.087.4.087.401.04.443.04.442-.018.475-.017.474-.082.478-.082.478-.13.402-.131.402-.208.424-.207.423-.225.337-.225.337-.38.397-.378.396-.362.272-.362.273-.49.249-.49.248-.476.154-.476.155-.479.081-.478.082-.609.02-.608.02-.386-.037zm25.743-.048l-.296-.037-.34-.084-.338-.083-.382-.189-.383-.188-.292-.267-.292-.268-.201-.308-.202-.309-.13-.339-.131-.338-.082-.348-.082-.347-.072-.487-.072-.487-.017-4.183-.017-4.184.05-.06.05-.06h2.133l.051.05.051.05v7.582l.044.614.042.614.087.523.087.522.106.324.105.323.135.254.135.254.254.256.254.256.233.111.233.112.275.073.275.073h.974l.296-.07.296-.071.381-.187.381-.186.318-.256.317-.256h.052l.051-.001.047.088.048.089-.099.106-.099.106-.339.257-.338.256-.466.224-.466.224-.317.088-.318.089-.402.061-.402.062-.444-.005-.445-.005-.296-.037zm-44.697-.234l-.028-.028V2.715l.05-.05.051-.052h2.094l.067.067.067.067-.002 9.14v9.14l-.026.064-.024.064h-2.22l-.029-.028zm8.89 0l-.028-.028-.001-3.687-.001-3.686-.04-.656-.04-.656-.07-.487-.07-.487-.102-.36-.102-.36-.154-.317-.154-.318-.279-.278-.278-.278-.248-.117-.247-.116-.303-.064-.303-.065-.53.021-.528.021-.233.072-.233.072-.296.148-.297.147-.312.24-.313.24-.058.042-.058.042-.074-.047-.074-.046-.013-.067-.013-.066.288-.24.289-.239.338-.209.337-.209.425-.165.424-.166.444-.094.445-.093.656-.001.656-.001.39.07.388.07.342.125.341.125.264.16.265.16.275.278.275.277.16.274.159.274.131.339.131.339.098.465.098.466.05.445.052.444.018 4.04.018 4.04-.024.098-.025.098h-2.228l-.028-.028zm19.465-.025l-.02-.052-.01-3.239-.011-3.238-.53-.022-.528-.02v-.212l.529-.022.529-.02.021-5.822.021-5.82 1.133-.012 1.132-.011v5.79l.001 5.79.034.052.033.053 2.686.01 2.686.011 1.937 3.382 1.936 3.381v.076l-1.279-.012-1.279-.01-1.88-3.293-1.882-3.292-1.486.011-1.486.012-.01 3.29-.011 3.292h-2.246l-.02-.053zm21.937.025l-.028-.028V8.896l.05-.051.051-.05h2.125l.051.05.051.05v12.128l-.026.067-.025.067h-2.22zm-15.152-8.975l-.074-.02v-.05l.272-.406.273-.405.17-.36.172-.36.064-.252.065-.253v-.22l-.063-.213-.063-.212-.157-.161-.156-.161-.225-.103-.225-.103v-.079h4.403v.089l-.135.047-.134.047-.448.22-.447.22-.508.342-.508.343-.424.358-.423.357-.466.481-.466.48-.182.202-.182.2-.03-.004-.029-.005zm-37.81-3.641l-.113-.373-.193-.53-.194-.528-.184-.386-.184-.386-.265-.397-.266-.398-.298-.3-.297-.3-.266-.179-.267-.179-.347-.165-.347-.165-.368-.105-.368-.105-.442-.066-.442-.066h-.247l-.051-.05-.051-.051v-.148l.04-.024.04-.025 2.088.107 2.087.107.55.032.55.031.011 2.474.011 2.474-.037.037-.037.037z"
      ></path>
      <path
        fill="#2f2f2f"
        d="M10.483 21.384l-.17-.017-.402-.046-.402-.046-.494-.103-.495-.103-.458-.15-.458-.15-.556-.268-.556-.268-.373-.245-.372-.245-.363-.303-.362-.303-.28-.297-.279-.297-.261-.344-.262-.344-.214-.35-.214-.35-.183-.381-.182-.381-.152-.408-.151-.408-.11-.418-.108-.417-.082-.473-.08-.472-.048-.67-.047-.67.05-.678.048-.678.083-.466.084-.465.082-.323.082-.322.152-.44.152-.44.225-.465.225-.466.295-.444.295-.445.135-.17.135-.168.39-.397.389-.396.34-.267.34-.267.34-.21.34-.211.336-.169.336-.168.416-.156.415-.155.41-.109.41-.11.422-.075.423-.076.033.02.032.02v.161l-.18.045-.18.045-.36.13-.36.132-.311.17-.312.17-.332.25-.332.25-.3.326-.301.327-.248.362-.248.362-.195.378-.195.379-.163.424-.163.423-.109.381-.109.381-.107.53-.106.529-.069.486-.068.487-.023 1.19-.023 1.189.05.567.049.568.086.571.086.572.142.55.141.55.133.382.132.38.269.55.268.551.27.38.268.379.339.343.339.343.317.223.318.224.36.181.36.181.327.11.327.109.308.064.308.063.486.047.487.047.53-.028.528-.028.533-.102.533-.102.293-.101.292-.102.158-.068.157-.067.36-.213.359-.212.256-.236.255-.237.212-.266.212-.267.231-.39.231-.392.21-.495.209-.496.18-.568.18-.567.036-.04.035-.04v4.92l-.307.023-.307.023-1.042.023-1.043.023-.439.041-.44.042-.803.044-.805.044-.656.016-.656.016zm28.067-.022l-.34-.035-.359-.07-.36-.07-.43-.14-.43-.14-.36-.172-.36-.172-.387-.258-.387-.259-.381-.363-.382-.363-.273-.363-.273-.363-.25-.494-.252-.494-.168-.543-.169-.543-.056-.381-.056-.381.003-.72.003-.72.076-.423.075-.423.104-.36.104-.36.165-.388.166-.388.195-.332.196-.331.223-.297.223-.296.357-.351.356-.351.346-.247.345-.247.422-.217.422-.217.438-.145.438-.145.326-.067.326-.066h.136l-.013.108-.013.108-.286.1-.285.099-.244.136-.244.137-.26.21-.26.21-.214.264-.214.263-.165.273-.166.272-.156.356-.157.357-.106.363-.105.363-.063.295-.062.295-.066.403-.065.404-.024 1.037-.024 1.036.052.488.052.487.065.4.064.401.12.429.12.429.17.39.17.392.236.354.235.355.254.253.253.253.285.19.285.188.266.112.266.111.37.09.368.09h1.228l.369-.09.369-.09.266-.111.266-.112.285-.189.286-.189.253-.253.253-.253.24-.36.239-.36.183-.433.184-.432.125-.486.124-.486.073-.466.073-.465.02-1.059.02-1.058-.07-.614-.07-.614-.108-.487-.108-.486-.127-.381-.127-.381-.19-.387-.19-.386-.276-.367-.275-.367-.244-.204-.244-.203-.25-.15-.248-.15-.307-.118-.307-.118v-.196h.148l.425.103.425.103.35.127.349.128.406.213.405.214.337.242.337.243.43.447.43.446.24.36.239.358.191.385.192.384.147.441.147.441.068.339.067.339.042.38.043.382v.66l-.044.41-.045.411-.087.381-.088.381-.126.36-.125.36-.232.449-.232.448-.27.36-.269.358-.381.363-.382.363-.387.259-.386.258-.354.17-.353.168-.384.128-.383.129-.392.081-.392.081-.439.045-.438.044-.408-.006-.408-.006-.34-.035zm25.774-.04l-.26-.034-.283-.07-.283-.072-.258-.104-.257-.105-.23-.147-.23-.147-.213-.199-.213-.2-.169-.248-.17-.249-.14-.306-.142-.307-.108-.413-.107-.414-.074-.513-.073-.512v-4.213l-.001-4.212h2.201l.025 4.149.024 4.149.07.539.07.54.083.375.082.375.122.315.123.316.16.24.16.242.197.174.197.173.248.126.25.126.28.06.28.059h.47l.469.001.335-.085.335-.086.339-.168.339-.168.317-.253.317-.254.054-.001h.054l.028.07.027.072-.209.186-.208.186-.375.248-.374.249-.324.135-.324.135-.275.08-.276.08-.38.062-.382.062-.529-.005-.529-.005-.26-.034zm-16.246-.203l-.022-.036-.004-3.233-.004-3.234-.044-.054-.045-.053h-.996l-.023-.06-.023-.059.025-.025.026-.026h.991l.047-.057.048-.057.01-5.795.011-5.796 1.063-.011 1.064-.011.048.057.048.058.01 5.79.011 5.79 2.682.012 2.682.012.034.036.035.036 1.912 3.34 1.911 3.34-.056.035-.056.036h-1.129l-1.129.001-.066-.025-.067-.026-1.83-3.202-1.83-3.203-.094-.095-.095-.095h-2.791l-.067.025-.067.026v6.493l-.051.051-.05.051h-2.096l-.022-.036zm-28.377-9.224l.01-9.218h2.202v18.415l-1.112.011-1.111.011zm8.866 5.123l-.02-4.097-.067-.55-.066-.55-.045-.233-.044-.233-.087-.318-.086-.317-.148-.307-.147-.307-.257-.275-.258-.276-.302-.148-.301-.149-.318-.067-.317-.067-.487.021-.487.021-.296.093-.297.093-.314.167-.314.168-.173.132-.172.133-.136.126-.136.126-.065-.054-.066-.054V9.98l.339-.268.338-.267.324-.186.323-.185.386-.145.386-.145.38-.08.382-.079.466-.027.465-.026.453.049.453.05.33.085.33.085.34.165.338.164.263.215.262.214.194.271.193.27.165.354.165.353.086.339.086.339.064.368.064.368.046.753.046.754-.013 3.662-.012 3.662-1.108.011-1.107.011zm41.425-2.032l.011-6.129h2.202v12.235l-1.112.011-1.111.011zm-15.18-2.881l-.021-.033.254-.38.254-.38.185-.38.185-.381.05-.2.048-.2-.016-.308-.017-.308-.122-.182-.121-.181-.255-.157-.255-.158 1.045-.01 1.044-.012 1.048.011 1.048.011-.413.198-.412.198-.37.224-.372.224-.508.379-.508.378-.834.84-.835.84h-.082zM17.1 8.667l-.028-.064-.218-.656-.217-.656-.253-.527-.253-.527-.24-.362-.242-.362-.318-.321-.319-.321-.254-.17-.254-.171-.22-.111-.219-.111-.267-.1-.267-.1-.312-.076-.311-.075-.514-.069-.514-.069-.014-.095-.014-.095h.324l1.524.087 1.524.086.94.032.94.031.023.024.024.023-.011 2.41-.011 2.408z"
      ></path>
      <path d="M10.207 21.324l-.36-.038-.402-.067-.402-.067-.486-.129-.486-.128-.36-.14-.361-.139-.427-.214-.427-.215-.441-.296-.44-.296-.384-.335-.383-.336-.333-.398-.334-.398-.286-.433-.285-.433-.233-.477-.233-.477-.19-.572-.19-.571-.106-.508-.106-.508-.054-.423-.054-.424.002-.889.003-.889.09-.592.09-.593.104-.402.103-.402.123-.36.122-.36.177-.402.176-.402.21-.352.209-.352.246-.344.245-.344.402-.42.401-.421.34-.273.339-.273.38-.237.382-.237.428-.205.428-.205.567-.186.567-.186.444-.085.445-.086.14-.024.14-.024-.013.07-.013.068-.318.093-.317.092-.353.154-.352.153-.367.242-.368.241-.445.449-.445.448-.247.375-.247.374-.225.451-.225.45-.175.509-.176.508-.123.5-.123.501-.085.558-.084.558-.05.592-.048.593.022 1.1.023 1.101.068.53.07.529.124.622.125.623.192.582.192.583.234.488.235.487.281.424.282.424.425.423.425.424.297.195.296.196.339.169.338.168.339.111.339.111.302.063.303.063.537.044.536.043.596-.042.595-.043.428-.087.428-.087.317-.108.318-.109.212-.106.211-.106.294-.19.295-.189.273-.26.273-.26.247-.33.246-.331.19-.347.188-.346.137-.318.137-.317.223-.635.223-.635.002 2.334.003 2.334-.096.025-.095.026h-.698l-.699.002-.72.04-.72.041-.994.066-.995.065-.762.017-.762.017-.36-.037zm28.279-.002l-.317-.04-.34-.068-.338-.068-.33-.104-.33-.104-.338-.145-.339-.145-.287-.167-.287-.168-.271-.203-.272-.204-.29-.274-.29-.273-.315-.418-.315-.418-.25-.515-.251-.515-.109-.339-.108-.339-.061-.296-.06-.296-.045-.359-.045-.359v-.445l.002-.446.059-.445.06-.446.088-.348.09-.348.109-.307.11-.307.19-.381.189-.381.234-.353.234-.354.384-.401.384-.402.358-.268.358-.27.449-.23.449-.232.317-.114.318-.113.423-.103.423-.102h.148v.169H38.2l-.074.001-.318.14-.32.138-.252.166-.253.166-.278.277-.278.276-.183.272-.184.271-.179.364-.179.363-.108.318-.108.317-.085.339-.085.339-.064.38-.063.382-.045.462-.045.462v1.544l.065.586.065.586.084.402.084.403.133.402.133.402.12.269.121.269.237.364.238.364.261.262.262.262.302.195.302.195.31.124.31.123.339.072.339.07h1.143l.338-.07.339-.072.31-.123.31-.124.302-.195.302-.195.262-.262.261-.262.238-.364.237-.364.12-.27.12-.268.134-.402.134-.402.082-.403.083-.402.055-.38.056-.382-.001-1.206-.001-1.207-.076-.508-.075-.508-.088-.38-.088-.382-.146-.423-.146-.423-.161-.324-.161-.323-.174-.256-.174-.256-.24-.26-.24-.26-.369-.242-.368-.243-.302-.102-.302-.103v-.15h.053l.053.001.296.063.297.062.402.132.402.131.49.252.488.251.361.271.36.27.357.375.357.375.26.38.258.379.199.396.198.396.143.43.143.429.064.317.065.318.049.402.05.402-.026.614-.026.614-.084.42-.084.418-.11.343-.108.343-.251.515-.25.515-.316.418-.314.418-.29.274-.29.273-.273.204-.271.203-.294.172-.295.172-.386.161-.386.162-.36.104-.36.104-.401.071-.403.071-.74.016-.741.015-.318-.04zm25.693-.06l-.32-.055-.251-.072-.251-.073-.297-.145-.297-.144-.242-.19-.243-.191-.193-.243-.193-.243-.186-.381-.186-.381-.088-.318-.087-.317-.061-.36-.062-.36-.043-.508-.044-.508V8.878h2.159v7.26l.042.699.042.698.064.466.064.465.107.403.108.402.155.315.155.315.25.266.248.266.292.146.293.146.323.072.323.072.534-.02.534-.022.355-.119.355-.119.333-.2.332-.2.215-.18.215-.179.05.051.05.052-.19.167-.19.167-.354.239-.353.238-.366.157-.367.158-.233.067-.233.067-.375.065-.376.066-.598-.004-.598-.004-.32-.054zm-16.092-3.229l-.008-3.08-.003-.19-.003-.191-.033-.053-.034-.053H47l-.026-.042-.026-.042h1.014l.067-.067.066-.066V2.654l1.07.011 1.068.011.011 5.832.01 5.831.053.002.053.002 2.66.016 2.66.016.013.014.013.014 1.904 3.323 1.904 3.324-.018.031-.018.032h-1.151l-1.151-.001-.047-.031-.047-.031-1.85-3.239-1.85-3.238-.069-.053-.07-.053h-1.44l-1.443.001-.052.033-.053.034-.01 3.278-.012 3.279-1.069.011-1.069.011-.008-3.08zm-28.355-6.15V2.696l1.07.012 1.068.011.01 9.176.012 9.175h-2.16zm8.89 5.769l-.001-3.418-.042-.855-.041-.854-.063-.483-.064-.484-.101-.398-.102-.398-.11-.248-.11-.249-.19-.266-.19-.265-.208-.153-.208-.153-.234-.107-.235-.107-.352-.067-.352-.067-.423.023-.424.024-.254.066-.254.067-.38.187-.382.188-.284.236-.285.235h-.129V10l.256-.211.256-.212.322-.2.322-.2.321-.134.322-.134.275-.08.275-.08.402-.062.403-.062h.806l.345.043.345.043.331.084.332.083.338.168.339.167.212.175.211.176.183.218.182.218.208.424.207.423.107.423.107.424.07.487.072.486.017 4.202.017 4.202h-2.165v-3.419zm41.402-2.678V8.878h2.16V21.07h-2.16zM54.87 12.06v-.036l.236-.353.236-.353.143-.282.142-.283.087-.259.087-.258v-.585l-.06-.143-.059-.143-.096-.122-.096-.122L55.299 9l-.192-.121h3.931l-.465.228-.465.229-.444.294-.444.295-.25.195-.248.195-.453.405-.452.405-.438.485-.439.486h-.07zM16.967 8.138l-.122-.381-.164-.414-.165-.414-.196-.39-.196-.39-.21-.312-.21-.311-.294-.31-.293-.308-.317-.22-.318-.219-.306-.14-.306-.14-.338-.106-.34-.105-.401-.067-.402-.067-.244-.026-.243-.026v-.12h.318l1.947.105 1.947.106h.955l.02.053.02.053-.01 2.265-.011 2.265-.121-.381z"></path>
    </svg>